<svg width="635" height="687" viewBox="0 0 635 687" fill="none" xmlns="http://www.w3.org/2000/svg">
<path d="M68.1926 546.666L68.2262 546.685L68.2598 546.704L258.616 653.411L258.629 653.418L258.642 653.426C277.898 664.175 297.471 670 317.602 670C337.732 670 357.248 664.175 376.389 653.408C376.395 653.405 376.402 653.401 376.408 653.398L566.74 546.704L566.774 546.685L566.807 546.666C582.605 537.716 596.026 527.226 605.151 512.098C614.296 496.936 618 479.002 618 457.207V226.24C618 205.177 614.069 187.709 605.067 172.974C596.101 158.297 583.129 148.025 568.147 139.559L568.139 139.554L568.131 139.55L381.312 34.2421C381.31 34.2409 381.308 34.2397 381.305 34.2384C381.304 34.2375 381.302 34.2366 381.3 34.2356C340.574 11.2416 294.669 11.2749 253.736 34.215L253.713 34.2279L253.69 34.2408L67.1871 139.523C67.1773 139.529 67.1676 139.534 67.1579 139.54C52.05 147.997 38.9989 158.262 29.9859 172.943C20.9307 187.693 17 205.179 17 226.24V457.207C17 479.002 20.7036 496.936 29.849 512.098C38.974 527.226 52.3949 537.716 68.1926 546.666Z" fill="#60A964" stroke="black" stroke-width="34"/>
<path d="M295.22 450.583C303.521 450.583 309.99 447.409 314.385 440.695L428.154 266.745C431.328 261.862 432.671 257.346 432.671 253.073C432.671 241.599 424.126 233.298 412.407 233.298C404.351 233.298 399.346 236.228 394.463 243.918L294.609 401.389L243.95 338.522C239.434 333.151 234.551 330.71 227.715 330.71C215.874 330.71 207.329 339.133 207.329 350.607C207.329 355.734 208.916 360.251 213.311 365.256L276.299 441.55C281.548 447.775 287.407 450.583 295.22 450.583Z" fill="white"/>
</svg>
